# xmcd CD database file
#
# Track frame offsets:
#	150
#	23698
#	36361
#	49592
#	67271
#	78931
#	98402
#	124229
#	140830
#	160858
#	193872
#	222428
#	248563
#	275865
#
# Disc length: 3918 seconds
#
# Revision: 0
# Processed by: cddbd v1.5.2PL0 Copyright (c) Steve Scherf et al.
# Submitted via: jetAudio 7
#
DISCID=ce0f4c0e
DTITLE=孔朝暉  - 梁祝.黃河
DYEAR=1900
DGENRE=Folk
TTITLE0=引子與主題
TTITLE1=同窗共讀
TTITLE2=十八裏長亭相送
TTITLE3=抗婚
TTITLE4=樓臺相會
TTITLE5=山伯臨終、英臺投墳
TTITLE6=化蝶、尾聲
TTITLE7=黄河船夫曲
TTITLE8=黄河頌
TTITLE9=黄水摇
TTITLE10=保衞黄河
TTITLE11=第一回旋曲(小提琴:田晶 鋼琴:周士瑋)
TTITLE12=思鄕曲(小提琴:田晶 鋼琴:周士瑋)
TTITLE13=塞外舞曲(小提琴:水兵 鋼琴:周紉秋)
EXTD=
EXTT0=
EXTT1=
EXTT2=
EXTT3=
EXTT4=
EXTT5=
EXTT6=
EXTT7=
EXTT8=
EXTT9=
EXTT10=
EXTT11=
EXTT12=
EXTT13=
PLAYORDER=
